<svg width="174" height="37" viewBox="0 0 174 37" version="1.1" xmlns="http://www.w3.org/2000/svg" xmlns:xlink="http://www.w3.org/1999/xlink">
<g data-name="Canvas" fill="none">
<g data-name="Logo">
<g data-name="tobi">
<path d="M 19.875 21.5391C 19.875 21.7891 19.7891 21.9922 19.6172 22.1484C 19.4453 22.2891 19.2344 22.3594 18.9844 22.3594L 7.10156 22.3594L 7.10156 22.6172C 7.10156 23.5703 7.03125 24.5859 6.89062 25.6641C 6.75 26.7422 6.55469 27.8203 6.30469 28.8984C 6.07031 29.9609 5.79688 31 5.48438 32.0156C 5.1875 33.0312 4.875 33.9688 4.54688 34.8281C 4.23438 35.6875 3.92188 36.4375 3.60938 37.0781C 3.29688 37.7031 3.01562 38.1719 2.76562 38.4844C 2.96875 39.2031 3.21094 39.875 3.49219 40.5C 3.77344 41.1094 4.08594 41.6484 4.42969 42.1172C 4.78906 42.5703 5.17188 42.9297 5.57812 43.1953C 5.98438 43.4609 6.42188 43.5938 6.89062 43.5938C 7.4375 43.5938 7.97656 43.3672 8.50781 42.9141C 9.05469 42.4453 9.55469 41.8984 10.0078 41.2734C 10.4766 40.6328 10.8828 39.9922 11.2266 39.3516C 11.5859 38.6953 11.8438 38.1719 12 37.7812C 12.1562 37.4062 12.4297 37.2188 12.8203 37.2188C 13.0859 37.2188 13.2969 37.3125 13.4531 37.5C 13.625 37.6875 13.7109 37.8906 13.7109 38.1094C 13.7109 38.2188 13.6875 38.3281 13.6406 38.4375C 13.5938 38.5469 13.4766 38.7969 13.2891 39.1875C 13.1172 39.5781 12.8828 40.0312 12.5859 40.5469C 12.3047 41.0625 11.9688 41.6094 11.5781 42.1875C 11.2031 42.75 10.7734 43.2656 10.2891 43.7344C 9.82031 44.2031 9.3125 44.5938 8.76562 44.9062C 8.21875 45.2188 7.64062 45.375 7.03125 45.375C 5.95312 45.375 4.98438 45.0234 4.125 44.3203C 3.26562 43.6172 2.53125 42.6328 1.92188 41.3672C 1.32812 40.1016 0.875 38.6016 0.5625 36.8672C 0.25 35.1328 0.09375 33.2344 0.09375 31.1719C 0.09375 30.6562 0.101562 30.0547 0.117188 29.3672C 0.132812 28.6641 0.164062 27.9297 0.210938 27.1641C 0.257812 26.3828 0.328125 25.5859 0.421875 24.7734C 0.515625 23.9453 0.640625 23.1406 0.796875 22.3594L -7.61719 22.3594C -7.86719 22.3594 -8.07812 22.2891 -8.25 22.1484C -8.42188 21.9922 -8.50781 21.7891 -8.50781 21.5391C -8.50781 21.2891 -8.42188 21.0938 -8.25 20.9531C -8.07812 20.7969 -7.86719 20.7188 -7.61719 20.7188L 1.19531 20.7188C 1.35156 20.1562 1.53125 19.6406 1.73438 19.1719C 1.95312 18.7031 2.19531 18.2969 2.46094 17.9531C 2.74219 17.6094 3.04688 17.3438 3.375 17.1562C 3.71875 16.9531 4.09375 16.8516 4.5 16.8516C 4.89062 16.8516 5.22656 16.9531 5.50781 17.1562C 5.80469 17.3438 6.05469 17.6094 6.25781 17.9531C 6.46094 18.2969 6.61719 18.7031 6.72656 19.1719C 6.85156 19.6406 6.94531 20.1562 7.00781 20.7188L 18.9844 20.7188C 19.2344 20.7188 19.4453 20.7969 19.6172 20.9531C 19.7891 21.0938 19.875 21.2891 19.875 21.5391ZM 2.22656 36.1406C 2.69531 35.1094 3.11719 34 3.49219 32.8125C 3.88281 31.6094 4.21094 30.3984 4.47656 29.1797C 4.75781 27.9609 4.96875 26.7656 5.10938 25.5938C 5.26562 24.4219 5.34375 23.3438 5.34375 22.3594L 2.57812 22.3594C 2.35938 23.3281 2.17969 24.5312 2.03906 25.9688C 1.91406 27.3906 1.85156 29.125 1.85156 31.1719C 1.85156 32.3125 1.88281 33.2734 1.94531 34.0547C 2.00781 34.8203 2.10156 35.5156 2.22656 36.1406ZM 4.40625 18.6094C 4.26562 18.6094 4.0625 18.7656 3.79688 19.0781C 3.53125 19.375 3.26562 19.9219 3 20.7188L 5.25 20.7188C 5.17188 20.0625 5.05469 19.5469 4.89844 19.1719C 4.75781 18.7969 4.59375 18.6094 4.40625 18.6094ZM 2.60156 37.8281L 2.60156 37.8516L 2.60156 37.8281ZM 22.8984 42.4219C 22.5078 42.4219 22.1641 42.3906 21.8672 42.3281C 21.6328 42.7969 21.3516 43.2344 21.0234 43.6406C 20.6953 44.0312 20.3125 44.375 19.875 44.6719C 19.4531 44.9688 18.9766 45.2031 18.4453 45.375C 17.9141 45.5469 17.3359 45.6328 16.7109 45.6328C 15.9766 45.6328 15.3047 45.5 14.6953 45.2344C 14.0859 44.9844 13.5547 44.6328 13.1016 44.1797C 12.6484 43.7109 12.2969 43.1562 12.0469 42.5156C 11.7969 41.8594 11.6719 41.1406 11.6719 40.3594C 11.6719 39.3594 11.8516 38.4922 12.2109 37.7578C 12.5703 37.0078 12.9844 36.3906 13.4531 35.9062C 13.9219 35.4062 14.3906 35.0391 14.8594 34.8047C 15.3281 34.5547 15.6797 34.4297 15.9141 34.4297C 16.1797 34.4297 16.375 34.5 16.5 34.6406C 16.6406 34.7812 16.7109 34.9688 16.7109 35.2031C 16.7109 35.4688 16.625 35.6719 16.4531 35.8125C 16.2969 35.9375 16.0938 36.0625 15.8438 36.1875C 15.5938 36.3125 15.3281 36.4922 15.0469 36.7266C 14.7656 36.9453 14.5 37.2266 14.25 37.5703C 14.0156 37.9141 13.8203 38.3203 13.6641 38.7891C 13.5078 39.2578 13.4297 39.7812 13.4297 40.3594C 13.4297 40.875 13.5078 41.3594 13.6641 41.8125C 13.8203 42.25 14.0469 42.6328 14.3438 42.9609C 14.6406 43.2734 14.9922 43.5234 15.3984 43.7109C 15.8047 43.8828 16.2578 43.9688 16.7578 43.9688C 17.6484 43.9688 18.3828 43.7656 18.9609 43.3594C 19.5547 42.9375 20.0078 42.4062 20.3203 41.7656C 19.3984 41.2812 18.6406 40.5938 18.0469 39.7031C 17.4531 38.8125 17.1562 37.8125 17.1562 36.7031C 17.1562 35.8125 17.3672 35.0859 17.7891 34.5234C 18.2266 33.9609 18.7969 33.6797 19.5 33.6797C 19.9219 33.6797 20.3203 33.7812 20.6953 33.9844C 21.0703 34.1875 21.3984 34.5078 21.6797 34.9453C 21.9766 35.3828 22.2109 35.9453 22.3828 36.6328C 22.5547 37.3203 22.6406 38.1406 22.6406 39.0938C 22.6406 39.5938 22.5781 40.1172 22.4531 40.6641C 22.5469 40.6797 22.6406 40.6875 22.7344 40.6875C 22.8281 40.6875 22.9297 40.6875 23.0391 40.6875C 23.5703 40.6875 24.0469 40.625 24.4688 40.5C 24.8906 40.375 25.2734 40.1875 25.6172 39.9375C 25.9609 39.6875 26.2656 39.3672 26.5312 38.9766C 26.8125 38.5859 27.0781 38.1328 27.3281 37.6172C 27.375 37.5234 27.4766 37.4375 27.6328 37.3594C 27.7891 37.2656 27.9453 37.2188 28.1016 37.2188C 28.3047 37.2188 28.4922 37.3047 28.6641 37.4766C 28.8516 37.6328 28.9453 37.8438 28.9453 38.1094C 28.9453 38.2344 28.9141 38.375 28.8516 38.5312C 28.7891 38.6719 28.7266 38.8047 28.6641 38.9297C 28.3984 39.3984 28.0859 39.8516 27.7266 40.2891C 27.3828 40.7109 26.9688 41.0859 26.4844 41.4141C 26.0156 41.7266 25.4844 41.9766 24.8906 42.1641C 24.2969 42.3516 23.6328 42.4375 22.8984 42.4219ZM 18.8906 36.5156C 18.8906 36.8125 18.9297 37.125 19.0078 37.4531C 19.0859 37.7812 19.2031 38.1094 19.3594 38.4375C 19.5312 38.75 19.7344 39.0547 19.9688 39.3516C 20.2188 39.6328 20.5078 39.875 20.8359 40.0781C 20.8828 39.75 20.9062 39.4297 20.9062 39.1172C 20.9062 38.6953 20.875 38.2656 20.8125 37.8281C 20.75 37.3906 20.6562 36.9922 20.5312 36.6328C 20.4219 36.2578 20.2812 35.9609 20.1094 35.7422C 19.9375 35.5078 19.7344 35.3906 19.5 35.3906C 19.4062 35.3906 19.2812 35.4609 19.125 35.6016C 18.9688 35.7422 18.8906 36.0469 18.8906 36.5156ZM 47.0391 38.5078C 46.9922 38.6016 46.8906 38.7969 46.7344 39.0938C 46.5781 39.375 46.375 39.7109 46.125 40.1016C 45.875 40.4766 45.5781 40.8828 45.2344 41.3203C 44.8906 41.7422 44.5156 42.1328 44.1094 42.4922C 43.7031 42.8516 43.2656 43.1484 42.7969 43.3828C 42.3281 43.6172 41.8438 43.7344 41.3438 43.7344C 40.5312 43.7344 39.8438 43.5938 39.2812 43.3125C 38.7188 43.0156 38.2578 42.6875 37.8984 42.3281C 37.6484 42.875 37.3438 43.375 36.9844 43.8281C 36.625 44.2812 36.2266 44.6719 35.7891 45C 35.3516 45.3438 34.8828 45.6094 34.3828 45.7969C 33.8984 45.9844 33.3984 46.0781 32.8828 46.0781C 31.9297 46.0781 31.1172 45.7969 30.4453 45.2344C 29.7734 44.6719 29.2109 43.9219 28.7578 42.9844C 28.3203 42.0312 27.9766 40.9297 27.7266 39.6797C 27.4766 38.4297 27.2812 37.1172 27.1406 35.7422C 27.0156 34.3672 26.9375 32.9766 26.9062 31.5703C 26.875 30.1641 26.8594 28.8281 26.8594 27.5625C 26.8594 25.1406 26.9297 23.0469 27.0703 21.2812C 27.2109 19.5 27.3984 17.9922 27.6328 16.7578C 27.8828 15.5078 28.1641 14.5 28.4766 13.7344C 28.8047 12.9531 29.1484 12.3516 29.5078 11.9297C 29.8672 11.4922 30.2344 11.1953 30.6094 11.0391C 30.9844 10.8828 31.3516 10.8047 31.7109 10.8047C 32.2891 10.8047 32.7969 10.9766 33.2344 11.3203C 33.6875 11.6641 34.0625 12.1484 34.3594 12.7734C 34.6719 13.3828 34.9062 14.125 35.0625 15C 35.2188 15.875 35.2969 16.8359 35.2969 17.8828C 35.2969 19.5547 35.1172 21.2812 34.7578 23.0625C 34.3984 24.8438 33.9297 26.625 33.3516 28.4062C 32.7891 30.1719 32.1562 31.9141 31.4531 33.6328C 30.75 35.3359 30.0547 36.9531 29.3672 38.4844C 29.4609 39.25 29.6016 39.9844 29.7891 40.6875C 29.9766 41.375 30.2188 41.9922 30.5156 42.5391C 30.8125 43.0703 31.1641 43.5 31.5703 43.8281C 31.9766 44.1406 32.4453 44.2969 32.9766 44.2969C 33.5078 44.2969 34.0078 44.1484 34.4766 43.8516C 34.9453 43.5391 35.3516 43.1406 35.6953 42.6562C 36.0391 42.1562 36.3047 41.5938 36.4922 40.9688C 36.6953 40.3438 36.7969 39.7031 36.7969 39.0469C 36.7969 38.6094 36.75 38.1719 36.6562 37.7344C 36.5781 37.2812 36.4453 36.8828 36.2578 36.5391C 36.0859 36.1797 35.8672 35.8906 35.6016 35.6719C 35.3359 35.4531 35.0156 35.3438 34.6406 35.3438C 34.3594 35.3438 34.1406 35.4062 33.9844 35.5312C 33.8281 35.6406 33.7109 35.7734 33.6328 35.9297C 33.5547 36.0703 33.5078 36.2109 33.4922 36.3516C 33.4766 36.4922 33.4688 36.5859 33.4688 36.6328C 33.4688 36.8516 33.5156 37.0703 33.6094 37.2891C 33.7031 37.5078 33.8828 37.7031 34.1484 37.875C 34.4141 38.0625 34.5469 38.3203 34.5469 38.6484C 34.5469 38.9141 34.4531 39.125 34.2656 39.2812C 34.0938 39.4375 33.8984 39.5156 33.6797 39.5156C 33.3672 39.5156 33.0859 39.4219 32.8359 39.2344C 32.6016 39.0469 32.3984 38.8125 32.2266 38.5312C 32.0547 38.2344 31.9219 37.9219 31.8281 37.5938C 31.7344 37.2656 31.6875 36.9609 31.6875 36.6797C 31.6875 36.2266 31.7656 35.8125 31.9219 35.4375C 32.0781 35.0469 32.2891 34.7188 32.5547 34.4531C 32.8359 34.1719 33.1484 33.9609 33.4922 33.8203C 33.8516 33.6641 34.2266 33.5859 34.6172 33.5859C 35.2891 33.5859 35.8672 33.7422 36.3516 34.0547C 36.8516 34.3672 37.2656 34.7812 37.5938 35.2969C 37.9219 35.8125 38.1641 36.3984 38.3203 37.0547C 38.4766 37.7109 38.5547 38.375 38.5547 39.0469C 38.5547 39.4375 38.5312 39.8203 38.4844 40.1953C 38.5469 40.3203 38.6484 40.4844 38.7891 40.6875C 38.9297 40.8906 39.1172 41.0859 39.3516 41.2734C 39.5859 41.4609 39.8672 41.625 40.1953 41.7656C 40.5234 41.9062 40.9062 41.9766 41.3438 41.9766C 41.7188 41.9766 42.1016 41.8359 42.4922 41.5547C 42.8984 41.2578 43.2812 40.8984 43.6406 40.4766C 44.0156 40.0391 44.3594 39.5781 44.6719 39.0938C 44.9844 38.5938 45.2422 38.1328 45.4453 37.7109C 45.5234 37.5547 45.6328 37.4375 45.7734 37.3594C 45.9141 37.2656 46.0703 37.2188 46.2422 37.2188C 46.5078 37.2188 46.7188 37.3125 46.875 37.5C 47.0469 37.6875 47.1328 37.8984 47.1328 38.1328C 47.1328 38.2266 47.1016 38.3516 47.0391 38.5078ZM 28.9219 35.4844C 29.4531 34.1719 29.9922 32.7969 30.5391 31.3594C 31.0859 29.9062 31.5781 28.4297 32.0156 26.9297C 32.4531 25.4297 32.8125 23.9141 33.0938 22.3828C 33.375 20.8516 33.5156 19.3438 33.5156 17.8594C 33.5156 17.2969 33.4844 16.7109 33.4219 16.1016C 33.375 15.4766 33.2812 14.9062 33.1406 14.3906C 33 13.875 32.8047 13.4453 32.5547 13.1016C 32.3203 12.7578 32.0156 12.5859 31.6406 12.5859C 31.5156 12.5859 31.3516 12.6719 31.1484 12.8438C 30.9609 13 30.7578 13.2891 30.5391 13.7109C 30.3203 14.1172 30.1016 14.6875 29.8828 15.4219C 29.6641 16.1562 29.4609 17.0938 29.2734 18.2344C 29.1016 19.3594 28.9531 20.7188 28.8281 22.3125C 28.7188 23.9062 28.6641 25.7812 28.6641 27.9375C 28.6641 28.6562 28.6719 29.3906 28.6875 30.1406C 28.7031 30.875 28.7188 31.5781 28.7344 32.25C 28.7656 32.9219 28.7969 33.5391 28.8281 34.1016C 28.8594 34.6641 28.8906 35.125 28.9219 35.4844ZM 49.2891 26.6016C 49.2891 27.1953 49.0781 27.7031 48.6562 28.125C 48.25 28.5312 47.75 28.7344 47.1562 28.7344C 46.5625 28.7344 46.0547 28.5312 45.6328 28.125C 45.2266 27.7031 45.0234 27.1953 45.0234 26.6016C 45.0234 26.3047 45.0781 26.0312 45.1875 25.7812C 45.2969 25.5156 45.4453 25.2891 45.6328 25.1016C 45.8359 24.8984 46.0625 24.7422 46.3125 24.6328C 46.5781 24.5234 46.8594 24.4688 47.1562 24.4688C 47.4531 24.4688 47.7266 24.5234 47.9766 24.6328C 48.2422 24.7422 48.4688 24.8984 48.6562 25.1016C 48.8594 25.2891 49.0156 25.5156 49.125 25.7812C 49.2344 26.0312 49.2891 26.3047 49.2891 26.6016ZM 45.4922 40.3359C 45.4922 38.0859 45.6328 35.8438 45.9141 33.6094C 45.9453 33.3906 46.0391 33.2031 46.1953 33.0469C 46.3672 32.875 46.5859 32.7891 46.8516 32.7891C 47.0859 32.7891 47.2812 32.8828 47.4375 33.0703C 47.5938 33.2422 47.6719 33.4453 47.6719 33.6797C 47.6719 33.7734 47.6484 34.0547 47.6016 34.5234C 47.5703 34.9922 47.5234 35.5547 47.4609 36.2109C 47.4141 36.8516 47.3672 37.5391 47.3203 38.2734C 47.2891 38.9922 47.2734 39.6562 47.2734 40.2656C 47.2734 41.0938 47.3516 41.7656 47.5078 42.2812C 47.6797 42.7812 47.8906 43.1719 48.1406 43.4531C 48.4062 43.7344 48.6797 43.9219 48.9609 44.0156C 49.2578 44.1094 49.5391 44.1562 49.8047 44.1562C 50.2422 44.1562 50.6953 44 51.1641 43.6875C 51.6328 43.375 52.1094 42.9375 52.5938 42.375C 53.0938 41.8125 53.5938 41.1406 54.0938 40.3594C 54.5938 39.5625 55.0859 38.6797 55.5703 37.7109C 55.6484 37.5547 55.7578 37.4375 55.8984 37.3594C 56.0391 37.2656 56.1953 37.2188 56.3672 37.2188C 56.6172 37.2188 56.8203 37.3125 56.9766 37.5C 57.1484 37.6875 57.2344 37.8906 57.2344 38.1094C 57.2344 38.2656 57.2031 38.3984 57.1406 38.5078C 56.9531 38.8672 56.7188 39.3047 56.4375 39.8203C 56.1562 40.3359 55.8359 40.8672 55.4766 41.4141C 55.1172 41.9609 54.7188 42.5078 54.2812 43.0547C 53.8594 43.5859 53.4062 44.0703 52.9219 44.5078C 52.4375 44.9297 51.9297 45.2734 51.3984 45.5391C 50.8672 45.8047 50.3281 45.9375 49.7812 45.9375C 49.0781 45.9375 48.4609 45.7891 47.9297 45.4922C 47.3984 45.1953 46.9453 44.7969 46.5703 44.2969C 46.2109 43.7969 45.9375 43.2109 45.75 42.5391C 45.5781 41.8516 45.4922 41.1172 45.4922 40.3359ZM 47.9766 26.6016C 47.9766 26.3828 47.8906 26.1953 47.7188 26.0391C 47.5625 25.8672 47.375 25.7812 47.1562 25.7812C 46.9375 25.7812 46.75 25.8672 46.5938 26.0391C 46.4375 26.1953 46.3594 26.3828 46.3594 26.6016C 46.3594 26.8203 46.4375 27.0078 46.5938 27.1641C 46.75 27.3203 46.9375 27.3984 47.1562 27.3984C 47.375 27.3984 47.5625 27.3203 47.7188 27.1641C 47.8906 27.0078 47.9766 26.8203 47.9766 26.6016Z" transform="translate(116 -10)" fill="white"/>
</g>
<g data-name="Oluwa">
<path d="M 35.1562 25.4297C 35.4375 25.2734 35.7266 25.0781 36.0234 24.8438C 36.3359 24.6094 36.6328 24.3672 36.9141 24.1172C 37.1953 23.8672 37.4453 23.6328 37.6641 23.4141C 37.8984 23.1797 38.0781 22.9766 38.2031 22.8047C 38.2969 22.6953 38.4219 22.6406 38.5781 22.6406C 38.8438 22.6406 39.0547 22.7422 39.2109 22.9453C 39.3828 23.1328 39.4688 23.3359 39.4688 23.5547C 39.4688 23.7109 39.4375 23.8438 39.375 23.9531C 39.1875 24.2031 38.9453 24.4844 38.6484 24.7969C 38.3672 25.0938 38.0312 25.3984 37.6406 25.7109C 37.2656 26.0234 36.8516 26.3438 36.3984 26.6719C 35.9453 26.9844 35.4766 27.2812 34.9922 27.5625C 34.7266 30.6406 34.0781 33.3281 33.0469 35.625C 32.0312 37.9062 30.7266 39.8125 29.1328 41.3438C 27.5547 42.875 25.7422 44.0234 23.6953 44.7891C 21.6641 45.5391 19.5 45.9141 17.2031 45.9141C 15.9531 45.9141 14.6875 45.7812 13.4062 45.5156C 12.1406 45.25 10.9219 44.8438 9.75 44.2969C 8.57812 43.7344 7.48438 43.0312 6.46875 42.1875C 5.45312 41.3281 4.57031 40.3125 3.82031 39.1406C 3.07031 37.9531 2.47656 36.6094 2.03906 35.1094C 1.61719 33.5938 1.40625 31.8984 1.40625 30.0234C 1.40625 28.1641 1.625 26.4062 2.0625 24.75C 2.51562 23.0781 3.17188 21.5312 4.03125 20.1094C 4.90625 18.6719 5.97656 17.3828 7.24219 16.2422C 8.50781 15.0859 9.96875 14.0937 11.625 13.2656C 11.75 13.2031 11.8906 13.1719 12.0469 13.1719C 12.2656 13.1719 12.4688 13.25 12.6562 13.4062C 12.8438 13.5625 12.9375 13.7734 12.9375 14.0391C 12.9375 14.2109 12.8828 14.375 12.7734 14.5312C 12.6797 14.6719 12.5469 14.7813 12.375 14.8594C 12.2812 14.9062 11.9844 15.0547 11.4844 15.3047C 11 15.5391 10.4141 15.9063 9.72656 16.4062C 9.05469 16.9062 8.32812 17.5469 7.54688 18.3281C 6.78125 19.0938 6.07031 20.0312 5.41406 21.1406C 4.77344 22.25 4.23438 23.5391 3.79688 25.0078C 3.375 26.4766 3.16406 28.1484 3.16406 30.0234C 3.16406 31.7422 3.34375 33.2578 3.70312 34.5703C 4.07812 35.8828 4.57031 37.0312 5.17969 38.0156C 5.78906 39 6.48438 39.8359 7.26562 40.5234C 8.0625 41.2109 8.875 41.7812 9.70312 42.2344C 10.5469 42.6875 11.3828 43.0469 12.2109 43.3125C 13.0391 43.5781 13.7969 43.7734 14.4844 43.8984C 15.1875 44.0234 15.7812 44.1016 16.2656 44.1328C 16.75 44.1641 17.0703 44.1797 17.2266 44.1797C 19.1641 44.1797 21.0156 43.875 22.7812 43.2656C 24.5469 42.6562 26.1328 41.7188 27.5391 40.4531C 28.9453 39.1719 30.125 37.5469 31.0781 35.5781C 32.0469 33.6094 32.7031 31.2656 33.0469 28.5469C 32.0312 29 30.9688 29.3594 29.8594 29.625C 28.7656 29.875 27.6172 30 26.4141 30C 24.7578 30 23.1484 29.7891 21.5859 29.3672C 20.0234 28.9297 18.6406 28.2812 17.4375 27.4219C 16.2344 26.5469 15.2656 25.4609 14.5312 24.1641C 13.7969 22.8672 13.4297 21.3516 13.4297 19.6172C 13.4297 18.2109 13.6719 16.9531 14.1562 15.8438C 14.6562 14.7188 15.3281 13.7656 16.1719 12.9844C 17.0156 12.1875 17.9922 11.5859 19.1016 11.1797C 20.2109 10.7578 21.375 10.5469 22.5938 10.5469C 23.5938 10.5469 24.5938 10.6641 25.5938 10.8984C 26.6094 11.1328 27.5781 11.5 28.5 12C 29.4375 12.4844 30.3047 13.1016 31.1016 13.8516C 31.9141 14.6016 32.6172 15.5 33.2109 16.5469C 33.8203 17.5938 34.2969 18.7891 34.6406 20.1328C 34.9844 21.4609 35.1562 22.9531 35.1562 24.6094L 35.1562 25.4297ZM 33.3281 26.5312C 33.375 25.9219 33.3984 25.3125 33.3984 24.7031C 33.3984 22.4844 33.0703 20.5859 32.4141 19.0078C 31.7734 17.4297 30.9297 16.1406 29.8828 15.1406C 28.8516 14.1406 27.6875 13.4141 26.3906 12.9609C 25.0938 12.4922 23.7969 12.2578 22.5 12.2578C 21.5 12.2578 20.5547 12.4219 19.6641 12.75C 18.7891 13.0781 18.0156 13.5547 17.3438 14.1797C 16.6875 14.8047 16.1641 15.5781 15.7734 16.5C 15.3984 17.4062 15.2109 18.4453 15.2109 19.6172C 15.2109 20.7422 15.4453 21.8281 15.9141 22.875C 16.3984 23.9062 17.1094 24.8281 18.0469 25.6406C 18.9844 26.4375 20.1484 27.0781 21.5391 27.5625C 22.9453 28.0312 24.5781 28.2656 26.4375 28.2656C 27.7031 28.2656 28.9062 28.1094 30.0469 27.7969C 31.2031 27.4844 32.2969 27.0625 33.3281 26.5312ZM 52.0547 38.5078C 51.8828 38.8672 51.6641 39.2969 51.3984 39.7969C 51.1484 40.2812 50.8594 40.7891 50.5312 41.3203C 50.2031 41.8516 49.8359 42.3828 49.4297 42.9141C 49.0234 43.4297 48.5781 43.8984 48.0938 44.3203C 47.625 44.7266 47.1172 45.0547 46.5703 45.3047C 46.0391 45.5703 45.4688 45.7031 44.8594 45.7031C 43.9219 45.7031 43.1172 45.4141 42.4453 44.8359C 41.7734 44.2578 41.2031 43.5 40.7344 42.5625C 40.2656 41.625 39.8828 40.5625 39.5859 39.375C 39.3047 38.1719 39.0859 36.9531 38.9297 35.7188C 38.7734 34.4688 38.6641 33.2578 38.6016 32.0859C 38.5547 30.9141 38.5312 29.875 38.5312 28.9688C 38.5312 27.6562 38.5703 26.2969 38.6484 24.8906C 38.7422 23.4844 38.8828 22.1094 39.0703 20.7656C 39.2578 19.4219 39.4922 18.1484 39.7734 16.9453C 40.0703 15.7422 40.4141 14.6875 40.8047 13.7812C 41.2109 12.875 41.6719 12.1563 42.1875 11.625C 42.7031 11.0937 43.2891 10.8281 43.9453 10.8281C 44.4609 10.8281 44.9219 10.9531 45.3281 11.2031C 45.75 11.4375 46.1016 11.8281 46.3828 12.375C 46.6641 12.9219 46.8828 13.6328 47.0391 14.5078C 47.1953 15.3828 47.2734 16.4531 47.2734 17.7188C 47.2734 19.2812 47.1094 20.8984 46.7812 22.5703C 46.4531 24.2266 46.0078 25.8984 45.4453 27.5859C 44.8828 29.2734 44.2188 30.9609 43.4531 32.6484C 42.6875 34.3203 41.8672 35.9531 40.9922 37.5469C 41.3828 39.5312 41.9062 41.0938 42.5625 42.2344C 43.2188 43.3594 44.0078 43.9219 44.9297 43.9219C 45.5547 43.9219 46.1562 43.6797 46.7344 43.1953C 47.3125 42.6953 47.8438 42.1094 48.3281 41.4375C 48.8125 40.7656 49.2344 40.0859 49.5938 39.3984C 49.9688 38.6953 50.2578 38.1328 50.4609 37.7109C 50.5391 37.5547 50.6484 37.4375 50.7891 37.3594C 50.9297 37.2656 51.0859 37.2188 51.2578 37.2188C 51.5234 37.2188 51.7344 37.3125 51.8906 37.5C 52.0625 37.6875 52.1484 37.8984 52.1484 38.1328C 52.1484 38.2266 52.1172 38.3516 52.0547 38.5078ZM 40.3125 29.0859C 40.3125 30.0859 40.3359 31.0469 40.3828 31.9688C 40.4297 32.8906 40.4922 33.7734 40.5703 34.6172C 41.2266 33.3516 41.8516 32.0078 42.4453 30.5859C 43.0391 29.1484 43.5625 27.7031 44.0156 26.25C 44.4688 24.7812 44.8281 23.3281 45.0938 21.8906C 45.375 20.4375 45.5156 19.0547 45.5156 17.7422C 45.5156 15.8984 45.3672 14.5781 45.0703 13.7812C 44.7734 12.9844 44.375 12.5859 43.875 12.5859C 43.5469 12.5859 43.2266 12.8125 42.9141 13.2656C 42.6172 13.7187 42.3359 14.3359 42.0703 15.1172C 41.8047 15.8984 41.5625 16.8203 41.3438 17.8828C 41.125 18.9453 40.9375 20.0859 40.7812 21.3047C 40.6406 22.5234 40.5234 23.7969 40.4297 25.125C 40.3516 26.4531 40.3125 27.7734 40.3125 29.0859ZM 58.2656 42.375C 57.7188 43.2656 57.0781 43.9688 56.3438 44.4844C 55.625 45 54.8984 45.2578 54.1641 45.2578C 53.5703 45.2578 53.0391 45.1484 52.5703 44.9297C 52.1016 44.7109 51.6953 44.4062 51.3516 44.0156C 51.0078 43.6094 50.7422 43.125 50.5547 42.5625C 50.3828 42 50.2969 41.3672 50.2969 40.6641C 50.2969 39.5703 50.3984 38.6016 50.6016 37.7578C 50.8203 36.9141 51.0547 36.2109 51.3047 35.6484C 51.5547 35.0703 51.7891 34.6328 52.0078 34.3359C 52.2266 34.0391 52.3359 33.8906 52.3359 33.8906C 52.4141 33.7969 52.5078 33.7266 52.6172 33.6797C 52.7422 33.6328 52.8672 33.6094 52.9922 33.6094C 53.2422 33.6094 53.4453 33.7031 53.6016 33.8906C 53.7734 34.0625 53.8594 34.2656 53.8594 34.5C 53.8594 34.5938 53.8359 34.6875 53.7891 34.7812C 53.7578 34.875 53.7188 34.9688 53.6719 35.0625C 53.5938 35.2031 53.4688 35.4219 53.2969 35.7188C 53.125 36 52.9453 36.375 52.7578 36.8438C 52.5703 37.3125 52.4062 37.8672 52.2656 38.5078C 52.125 39.1328 52.0547 39.8516 52.0547 40.6641C 52.0547 41.5859 52.2344 42.2891 52.5938 42.7734C 52.9688 43.2422 53.4922 43.4766 54.1641 43.4766C 54.4453 43.4766 54.7656 43.3906 55.125 43.2188C 55.5 43.0312 55.8594 42.75 56.2031 42.375C 56.5625 42 56.875 41.5234 57.1406 40.9453C 57.4062 40.3672 57.5781 39.6875 57.6562 38.9062L 58.0078 34.875C 58.0391 34.6406 58.1406 34.4453 58.3125 34.2891C 58.4844 34.1328 58.6875 34.0547 58.9219 34.0547C 59.1875 34.0547 59.3984 34.1562 59.5547 34.3594C 59.7109 34.5469 59.7891 34.7656 59.7891 35.0156L 59.4844 38.9062C 59.4531 39.2344 59.4609 39.6641 59.5078 40.1953C 59.5703 40.7266 59.6875 41.25 59.8594 41.7656C 60.0312 42.2812 60.2891 42.7266 60.6328 43.1016C 60.9766 43.4609 61.4297 43.6406 61.9922 43.6406C 62.3984 43.6406 62.7969 43.5391 63.1875 43.3359C 63.5781 43.1172 63.9531 42.8359 64.3125 42.4922C 64.6719 42.1484 65 41.7656 65.2969 41.3438C 65.6094 40.9062 65.8906 40.4688 66.1406 40.0312C 66.4062 39.5938 66.6328 39.1797 66.8203 38.7891C 67.0078 38.3828 67.1641 38.0391 67.2891 37.7578C 67.3672 37.5859 67.4766 37.4531 67.6172 37.3594C 67.7578 37.2656 67.9141 37.2188 68.0859 37.2188C 68.3672 37.2188 68.5859 37.3125 68.7422 37.5C 68.8984 37.6875 68.9766 37.8906 68.9766 38.1094C 68.9766 38.2344 68.9531 38.3516 68.9062 38.4609C 68.8438 38.5859 68.7188 38.8516 68.5312 39.2578C 68.3594 39.6484 68.125 40.1016 67.8281 40.6172C 67.5469 41.1172 67.2031 41.6484 66.7969 42.2109C 66.3906 42.7734 65.9375 43.2969 65.4375 43.7812C 64.9375 44.25 64.3906 44.6406 63.7969 44.9531C 63.2188 45.25 62.5938 45.3984 61.9219 45.3984C 61 45.3984 60.2344 45.1406 59.625 44.625C 59.0156 44.0938 58.5625 43.3438 58.2656 42.375ZM 83.7422 38.4844C 83.6953 39.2969 83.5859 40.1172 83.4141 40.9453C 83.2422 41.7578 82.9688 42.4922 82.5938 43.1484C 82.2344 43.8047 81.7578 44.3438 81.1641 44.7656C 80.5703 45.1719 79.8359 45.375 78.9609 45.375C 78.4141 45.375 77.9297 45.2891 77.5078 45.1172C 77.1016 44.9609 76.7422 44.75 76.4297 44.4844C 76.1328 44.2031 75.8828 43.8906 75.6797 43.5469C 75.4766 43.1875 75.3047 42.8125 75.1641 42.4219C 74.6172 43.3281 73.9688 44.0312 73.2188 44.5312C 72.4844 45.0156 71.75 45.2578 71.0156 45.2578C 70.4219 45.2578 69.8828 45.1484 69.3984 44.9297C 68.9297 44.7109 68.5234 44.4062 68.1797 44.0156C 67.8516 43.6094 67.5938 43.125 67.4062 42.5625C 67.2188 42 67.125 41.3672 67.125 40.6641C 67.125 39.4922 67.2266 38.4844 67.4297 37.6406C 67.6484 36.7812 67.8828 36.0781 68.1328 35.5312C 68.3984 34.9844 68.6406 34.5781 68.8594 34.3125C 69.0781 34.0312 69.1875 33.8906 69.1875 33.8906C 69.2656 33.7969 69.3594 33.7266 69.4688 33.6797C 69.5938 33.6328 69.7188 33.6094 69.8438 33.6094C 70.0938 33.6094 70.2969 33.7031 70.4531 33.8906C 70.625 34.0625 70.7109 34.2656 70.7109 34.5C 70.7109 34.6719 70.6484 34.8594 70.5234 35.0625C 70.4609 35.1562 70.3359 35.3359 70.1484 35.6016C 69.9766 35.8672 69.7969 36.2266 69.6094 36.6797C 69.4219 37.1328 69.25 37.6875 69.0938 38.3438C 68.9531 39 68.8828 39.7734 68.8828 40.6641C 68.8828 41.5859 69.0703 42.2891 69.4453 42.7734C 69.8203 43.2422 70.3438 43.4766 71.0156 43.4766C 71.3438 43.4766 71.7031 43.3906 72.0938 43.2188C 72.4844 43.0312 72.8516 42.75 73.1953 42.375C 73.5391 42 73.8359 41.5234 74.0859 40.9453C 74.3359 40.3672 74.4922 39.6875 74.5547 38.9062L 74.8594 34.875C 74.875 34.6406 74.9688 34.4453 75.1406 34.2891C 75.3281 34.1328 75.5391 34.0547 75.7734 34.0547C 76.0391 34.0547 76.25 34.1562 76.4062 34.3594C 76.5625 34.5469 76.6406 34.7656 76.6406 35.0156L 76.3828 38.8828C 76.3359 39.7109 76.3594 40.4219 76.4531 41.0156C 76.5625 41.6094 76.7344 42.1016 76.9688 42.4922C 77.2031 42.8672 77.4922 43.1484 77.8359 43.3359C 78.1797 43.5078 78.5625 43.5938 78.9844 43.5938C 79.5469 43.5938 80.0234 43.4297 80.4141 43.1016C 80.8047 42.7734 81.1172 42.3281 81.3516 41.7656C 81.5859 41.2031 81.75 40.5547 81.8438 39.8203C 81.9531 39.0703 82.0078 38.2812 82.0078 37.4531C 82.0078 36.4688 81.9531 35.6484 81.8438 34.9922C 81.7344 34.3359 81.6797 33.8984 81.6797 33.6797C 81.6797 33.4453 81.7656 33.2422 81.9375 33.0703C 82.1094 32.8828 82.3203 32.7891 82.5703 32.7891C 82.7891 32.7891 82.9766 32.8594 83.1328 33C 83.2891 33.125 83.3906 33.2969 83.4375 33.5156C 83.4531 33.5781 83.5 33.7578 83.5781 34.0547C 83.6562 34.3516 83.7656 34.7109 83.9062 35.1328C 84.0469 35.5391 84.2266 35.9766 84.4453 36.4453C 84.6797 36.8984 84.9531 37.3203 85.2656 37.7109C 85.5938 38.1016 85.9609 38.4297 86.3672 38.6953C 86.7891 38.9453 87.2656 39.0703 87.7969 39.0703C 88.0938 39.0703 88.3438 39.0156 88.5469 38.9062C 88.7656 38.7812 88.9453 38.6406 89.0859 38.4844C 89.2266 38.3281 89.3281 38.1797 89.3906 38.0391C 89.4688 37.8984 89.5156 37.8125 89.5312 37.7812C 89.6094 37.6094 89.7188 37.4766 89.8594 37.3828C 90.0156 37.2734 90.1797 37.2188 90.3516 37.2188C 90.6172 37.2188 90.8281 37.3203 90.9844 37.5234C 91.1562 37.7109 91.2422 37.9141 91.2422 38.1328C 91.2422 38.3203 91.1562 38.5703 90.9844 38.8828C 90.8281 39.1953 90.6016 39.5 90.3047 39.7969C 90.0078 40.0781 89.6406 40.3281 89.2031 40.5469C 88.7812 40.75 88.3125 40.8516 87.7969 40.8516C 87.3438 40.8516 86.9219 40.7891 86.5312 40.6641C 86.1406 40.5234 85.7734 40.3438 85.4297 40.125C 85.1016 39.9062 84.7969 39.6562 84.5156 39.375C 84.2344 39.0938 83.9766 38.7969 83.7422 38.4844ZM 107.695 38.4609C 107.633 38.5859 107.5 38.8516 107.297 39.2578C 107.109 39.6484 106.859 40.1016 106.547 40.6172C 106.25 41.1328 105.898 41.6719 105.492 42.2344C 105.086 42.7969 104.633 43.3125 104.133 43.7812C 103.633 44.25 103.094 44.6406 102.516 44.9531C 101.938 45.25 101.328 45.3984 100.688 45.3984C 99.7812 45.3984 99.0156 45.1094 98.3906 44.5312C 97.7812 43.9531 97.3359 43.2266 97.0547 42.3516C 96.5234 43.2422 95.8906 43.9531 95.1562 44.4844C 94.4219 45 93.6875 45.2578 92.9531 45.2578C 92.375 45.2578 91.8516 45.1562 91.3828 44.9531C 90.9141 44.7344 90.5156 44.4375 90.1875 44.0625C 89.8594 43.6719 89.6016 43.2188 89.4141 42.7031C 89.2422 42.1875 89.1562 41.625 89.1562 41.0156C 89.1562 39.7969 89.3594 38.7266 89.7656 37.8047C 90.1875 36.8672 90.7188 36.0859 91.3594 35.4609C 92 34.8359 92.7031 34.3672 93.4688 34.0547C 94.25 33.7422 95 33.5859 95.7188 33.5859C 96.2031 33.5859 96.6484 33.6562 97.0547 33.7969C 97.4609 33.9219 97.8047 34.0625 98.0859 34.2188C 98.3828 34.375 98.6094 34.5234 98.7656 34.6641C 98.9219 34.7891 99.0078 34.8594 99.0234 34.875C 99.1953 35.0781 99.2812 35.2891 99.2812 35.5078C 99.2812 35.7422 99.1953 35.9531 99.0234 36.1406C 98.8516 36.3125 98.6484 36.3984 98.4141 36.3984C 98.1641 36.3984 97.9531 36.3125 97.7812 36.1406C 97.75 36.1094 97.6797 36.0547 97.5703 35.9766C 97.4609 35.8828 97.3125 35.7891 97.125 35.6953C 96.9375 35.6016 96.7109 35.5234 96.4453 35.4609C 96.1953 35.3828 95.9062 35.3438 95.5781 35.3438C 95.0938 35.3438 94.5781 35.4531 94.0312 35.6719C 93.4844 35.8906 92.9844 36.2344 92.5312 36.7031C 92.0781 37.1562 91.6953 37.7344 91.3828 38.4375C 91.0859 39.125 90.9375 39.9453 90.9375 40.8984C 90.9375 41.1953 90.9688 41.5 91.0312 41.8125C 91.0938 42.1094 91.2031 42.3828 91.3594 42.6328C 91.5156 42.8828 91.7266 43.0859 91.9922 43.2422C 92.2578 43.3984 92.5859 43.4766 92.9766 43.4766C 93.2578 43.4766 93.5781 43.3828 93.9375 43.1953C 94.3125 43.0078 94.6641 42.7188 94.9922 42.3281C 95.3359 41.9375 95.6406 41.4453 95.9062 40.8516C 96.1875 40.2578 96.3828 39.5547 96.4922 38.7422C 96.5234 38.5234 96.625 38.3438 96.7969 38.2031C 96.9688 38.0469 97.1719 37.9688 97.4062 37.9688C 97.625 37.9688 97.8125 38.0547 97.9688 38.2266C 98.1406 38.3984 98.2344 38.5938 98.25 38.8125C 98.2656 39.1094 98.2969 39.5312 98.3438 40.0781C 98.3906 40.6094 98.4922 41.1406 98.6484 41.6719C 98.8203 42.2031 99.0703 42.6641 99.3984 43.0547C 99.7266 43.4453 100.18 43.6406 100.758 43.6406C 101.133 43.6406 101.5 43.5391 101.859 43.3359C 102.234 43.1328 102.594 42.8672 102.938 42.5391C 103.297 42.1953 103.633 41.8125 103.945 41.3906C 104.273 40.9531 104.57 40.5156 104.836 40.0781C 105.102 39.6406 105.336 39.2188 105.539 38.8125C 105.742 38.4062 105.914 38.0547 106.055 37.7578C 106.133 37.5859 106.242 37.4531 106.383 37.3594C 106.539 37.2656 106.703 37.2188 106.875 37.2188C 107.141 37.2188 107.352 37.3203 107.508 37.5234C 107.68 37.7109 107.766 37.9141 107.766 38.1328C 107.766 38.2422 107.742 38.3516 107.695 38.4609Z" transform="translate(-1 -10)" fill="#5270FF"/>
</g>
</g>
</g>
</svg>

